<?xml version="1.0" encoding="UTF-8" standalone="no"?>
<!-- Created with Inkscape (http://www.inkscape.org/) -->

<svg
   xmlns:dc="http://purl.org/dc/elements/1.1/"
   xmlns:cc="http://creativecommons.org/ns#"
   xmlns:rdf="http://www.w3.org/1999/02/22-rdf-syntax-ns#"
   xmlns:svg="http://www.w3.org/2000/svg"
   xmlns="http://www.w3.org/2000/svg"
   xmlns:xlink="http://www.w3.org/1999/xlink"
   xmlns:sodipodi="http://sodipodi.sourceforge.net/DTD/sodipodi-0.dtd"
   xmlns:inkscape="http://www.inkscape.org/namespaces/inkscape"
   version="1.1"
   width="64"
   height="64"
   id="svg5821"
   inkscape:version="0.48.4 r9939"
   sodipodi:docname="TechDraw_Dimension_Link.svg">
  <sodipodi:namedview
     pagecolor="#ffffff"
     bordercolor="#666666"
     borderopacity="1"
     objecttolerance="10"
     gridtolerance="10"
     guidetolerance="10"
     inkscape:pageopacity="0"
     inkscape:pageshadow="2"
     inkscape:window-width="1920"
     inkscape:window-height="1001"
     id="namedview17"
     showgrid="true"
     inkscape:zoom="10.429825"
     inkscape:cx="1.6888071"
     inkscape:cy="29.281119"
     inkscape:window-x="-9"
     inkscape:window-y="-9"
     inkscape:window-maximized="1"
     inkscape:current-layer="svg5821"
     inkscape:snap-bbox="true"
     inkscape:snap-nodes="false">
    <inkscape:grid
       type="xygrid"
       id="grid2990"
       empspacing="2"
       visible="true"
       enabled="true"
       snapvisiblegridlinesonly="true" />
  </sodipodi:namedview>
  <defs
     id="defs5823">
    <linearGradient
       id="linearGradient3042"
       inkscape:collect="always">
      <stop
         id="stop3044"
         offset="0"
         style="stop-color:#c4a000;stop-opacity:1" />
      <stop
         id="stop3046"
         offset="1"
         style="stop-color:#fce94f;stop-opacity:1" />
    </linearGradient>
    <linearGradient
       id="linearGradient3036"
       inkscape:collect="always">
      <stop
         id="stop3038"
         offset="0"
         style="stop-color:#c4a000;stop-opacity:1" />
      <stop
         id="stop3040"
         offset="1"
         style="stop-color:#fce94f;stop-opacity:1" />
    </linearGradient>
    <linearGradient
       id="linearGradient3030"
       inkscape:collect="always">
      <stop
         id="stop3032"
         offset="0"
         style="stop-color:#c4a000;stop-opacity:1" />
      <stop
         id="stop3034"
         offset="1"
         style="stop-color:#fce94f;stop-opacity:1" />
    </linearGradient>
    <linearGradient
       id="linearGradient3018"
       inkscape:collect="always">
      <stop
         id="stop3020"
         offset="0"
         style="stop-color:#c4a000;stop-opacity:1" />
      <stop
         id="stop3022"
         offset="1"
         style="stop-color:#fce94f;stop-opacity:1" />
    </linearGradient>
    <linearGradient
       inkscape:collect="always"
       id="linearGradient3915">
      <stop
         style="stop-color:#c4a000;stop-opacity:1"
         offset="0"
         id="stop3917" />
      <stop
         style="stop-color:#fce94f;stop-opacity:1"
         offset="1"
         id="stop3919" />
    </linearGradient>
    <linearGradient
       id="linearGradient6349">
      <stop
         id="stop6351"
         style="stop-color:#000000;stop-opacity:1"
         offset="0" />
      <stop
         id="stop6353"
         style="stop-color:#000000;stop-opacity:0"
         offset="1" />
    </linearGradient>
    <linearGradient
       id="linearGradient3377">
      <stop
         id="stop3379"
         style="stop-color:#0019a3;stop-opacity:1"
         offset="0" />
      <stop
         id="stop3381"
         style="stop-color:#0069ff;stop-opacity:1"
         offset="1" />
    </linearGradient>
    <linearGradient
       x1="901.1875"
       y1="1190.875"
       x2="1267.9062"
       y2="1190.875"
       id="linearGradient3383"
       xlink:href="#linearGradient3377"
       gradientUnits="userSpaceOnUse"
       gradientTransform="matrix(-1,0,0,1,2199.356,0)" />
    <radialGradient
       cx="1103.6399"
       cy="1424.4465"
       r="194.40614"
       fx="1103.6399"
       fy="1424.4465"
       id="radialGradient6355"
       xlink:href="#linearGradient6349"
       gradientUnits="userSpaceOnUse"
       gradientTransform="matrix(-1.4307499,-1.3605156e-7,-1.202713e-8,0.1264801,2674.7488,1244.2826)" />
    <linearGradient
       inkscape:collect="always"
       xlink:href="#linearGradient3915"
       id="linearGradient3921"
       x1="-6.1755753"
       y1="60.09618"
       x2="29.974852"
       y2="78.423027"
       gradientUnits="userSpaceOnUse" />
    <linearGradient
       inkscape:collect="always"
       xlink:href="#linearGradient3030"
       id="linearGradient3929"
       x1="36.246681"
       y1="75.570137"
       x2="-15.171693"
       y2="65.775932"
       gradientUnits="userSpaceOnUse" />
    <linearGradient
       inkscape:collect="always"
       xlink:href="#linearGradient3036"
       id="linearGradient3921-2"
       x1="-6.1755753"
       y1="60.09618"
       x2="29.974852"
       y2="78.423027"
       gradientUnits="userSpaceOnUse" />
    <linearGradient
       inkscape:collect="always"
       id="linearGradient3915-6">
      <stop
         style="stop-color:#d3d7cf;stop-opacity:1"
         offset="0"
         id="stop3917-0" />
      <stop
         style="stop-color:#ffffff;stop-opacity:1"
         offset="1"
         id="stop3919-4" />
    </linearGradient>
    <linearGradient
       inkscape:collect="always"
       xlink:href="#linearGradient3915-6"
       id="linearGradient3929-9"
       x1="36.246681"
       y1="75.570137"
       x2="-15.171693"
       y2="65.775932"
       gradientUnits="userSpaceOnUse" />
    <linearGradient
       y2="65.775932"
       x2="-15.171693"
       y1="75.570137"
       x1="36.246681"
       gradientUnits="userSpaceOnUse"
       id="linearGradient3954"
       xlink:href="#linearGradient3018"
       inkscape:collect="always" />
    <linearGradient
       inkscape:collect="always"
       xlink:href="#linearGradient3042"
       id="linearGradient3921-2-6"
       x1="-6.1755753"
       y1="60.09618"
       x2="29.974852"
       y2="78.423027"
       gradientUnits="userSpaceOnUse" />
    <linearGradient
       inkscape:collect="always"
       id="linearGradient3915-6-2">
      <stop
         style="stop-color:#c4a000;stop-opacity:1"
         offset="0"
         id="stop3917-0-4" />
      <stop
         style="stop-color:#fce94f;stop-opacity:1"
         offset="1"
         id="stop3919-4-5" />
    </linearGradient>
    <linearGradient
       y2="65.775932"
       x2="-15.171693"
       y1="75.570137"
       x1="36.246681"
       gradientUnits="userSpaceOnUse"
       id="linearGradient3954-8"
       xlink:href="#linearGradient3915-6-2"
       inkscape:collect="always" />
    <radialGradient
       r="16.528622"
       fy="37.967922"
       fx="24.130018"
       cy="37.967922"
       cx="24.130018"
       gradientTransform="matrix(1,0,0,0.237968,0,28.9328)"
       gradientUnits="userSpaceOnUse"
       id="radialGradient2842"
       xlink:href="#linearGradient4477"
       inkscape:collect="always" />
    <linearGradient
       inkscape:collect="always"
       id="linearGradient4477">
      <stop
         style="stop-color: rgb(0, 0, 0); stop-opacity: 1;"
         offset="0"
         id="stop4479" />
      <stop
         style="stop-color: rgb(0, 0, 0); stop-opacity: 0;"
         offset="1"
         id="stop4481" />
    </linearGradient>
    <linearGradient
       gradientUnits="userSpaceOnUse"
       y2="31.494375"
       x2="24.092035"
       y1="2.1658611"
       x1="14.998558"
       id="linearGradient2852"
       xlink:href="#linearGradient2846"
       inkscape:collect="always"
       gradientTransform="matrix(0.98972044,0,0,1.0228953,0.20242822,0.02455684)" />
    <linearGradient
       id="linearGradient2846">
      <stop
         id="stop2848"
         offset="0.0000000"
         style="stop-color: rgb(138, 138, 138); stop-opacity: 1;" />
      <stop
         id="stop2850"
         offset="1.0000000"
         style="stop-color: rgb(72, 72, 72); stop-opacity: 1;" />
    </linearGradient>
    <linearGradient
       inkscape:collect="always"
       xlink:href="#linearGradient4440"
       id="linearGradient4446"
       x1="30.65625"
       y1="34"
       x2="33.21875"
       y2="31.0625"
       gradientUnits="userSpaceOnUse"
       gradientTransform="matrix(1.3208711,0,0,1.3208546,-6.6997238,-7.6069175)" />
    <linearGradient
       id="linearGradient4440">
      <stop
         style="stop-color: rgb(125, 125, 125); stop-opacity: 1;"
         offset="0"
         id="stop4442" />
      <stop
         id="stop4448"
         offset="0.50000000"
         style="stop-color: rgb(177, 177, 177); stop-opacity: 1;" />
      <stop
         style="stop-color: rgb(104, 104, 104); stop-opacity: 1;"
         offset="1.0000000"
         id="stop4444" />
    </linearGradient>
    <linearGradient
       gradientUnits="userSpaceOnUse"
       y2="25.743469"
       x2="17.500893"
       y1="13.602121"
       x1="18.292673"
       id="linearGradient2372"
       xlink:href="#linearGradient2366"
       inkscape:collect="always" />
    <linearGradient
       id="linearGradient2366">
      <stop
         id="stop2368"
         offset="0"
         style="stop-color: rgb(255, 255, 255); stop-opacity: 1;" />
      <stop
         style="stop-color: rgb(255, 255, 255); stop-opacity: 0.219048;"
         offset="0.50000000"
         id="stop2374" />
      <stop
         id="stop2370"
         offset="1.0000000"
         style="stop-color: rgb(255, 255, 255); stop-opacity: 1;" />
    </linearGradient>
    <radialGradient
       inkscape:collect="always"
       xlink:href="#linearGradient4454"
       id="radialGradient4460"
       cx="18.240929"
       cy="21.817987"
       fx="18.240929"
       fy="21.817987"
       r="8.3085051"
       gradientUnits="userSpaceOnUse" />
    <linearGradient
       id="linearGradient4454">
      <stop
         style="stop-color: rgb(114, 159, 207); stop-opacity: 0.207843;"
         offset="0.0000000"
         id="stop4456" />
      <stop
         style="stop-color: rgb(114, 159, 207); stop-opacity: 0.67619;"
         offset="1.0000000"
         id="stop4458" />
    </linearGradient>
    <radialGradient
       inkscape:collect="always"
       xlink:href="#linearGradient4487"
       id="radialGradient4473"
       cx="15.414371"
       cy="13.078408"
       fx="15.414371"
       fy="13.078408"
       r="6.65625"
       gradientTransform="matrix(2.5663055,0,0,2.3036626,-24.59967,-19.350105)"
       gradientUnits="userSpaceOnUse" />
    <linearGradient
       inkscape:collect="always"
       id="linearGradient4487">
      <stop
         style="stop-color: rgb(255, 255, 255); stop-opacity: 1;"
         offset="0"
         id="stop4489" />
      <stop
         style="stop-color: rgb(255, 255, 255); stop-opacity: 0;"
         offset="1"
         id="stop4491" />
    </linearGradient>
    <radialGradient
       r="6.65625"
       fy="13.078408"
       fx="15.414371"
       cy="13.078408"
       cx="15.414371"
       gradientTransform="matrix(2.5663055,0,0,2.3036626,-24.59967,-19.350105)"
       gradientUnits="userSpaceOnUse"
       id="radialGradient3196"
       xlink:href="#linearGradient4487"
       inkscape:collect="always" />
  </defs>
  <metadata
     id="metadata5826">
    <rdf:RDF>
      <cc:Work
         rdf:about="">
        <dc:format>image/svg+xml</dc:format>
        <dc:type
           rdf:resource="http://purl.org/dc/dcmitype/StillImage" />
        <dc:title></dc:title>
        <dc:creator>
          <cc:Agent>
            <dc:title>[WandererFan]</dc:title>
          </cc:Agent>
        </dc:creator>
        <dc:title>TechDraw_Dimension_Link</dc:title>
        <dc:date>2016-04-27</dc:date>
        <dc:relation>http://www.freecadweb.org/wiki/index.php?title=Artwork</dc:relation>
        <dc:publisher>
          <cc:Agent>
            <dc:title>FreeCAD</dc:title>
          </cc:Agent>
        </dc:publisher>
        <dc:identifier>FreeCAD/src/Mod/TechDraw/Gui/Resources/icons/TechDraw_Dimension_Link.svg</dc:identifier>
        <dc:rights>
          <cc:Agent>
            <dc:title>FreeCAD LGPL2+</dc:title>
          </cc:Agent>
        </dc:rights>
        <cc:license
           rdf:resource="https://www.gnu.org/licenses/lgpl-3.0.en.html">https://www.gnu.org/copyleft/lesser.html</cc:license>
        <dc:contributor>
          <cc:Agent>
            <dc:title>[agryson] Alexander Gryson</dc:title>
          </cc:Agent>
        </dc:contributor>
        <dc:subject>
          <rdf:Bag>
            <rdf:li>chain</rdf:li>
            <rdf:li>link</rdf:li>
            <rdf:li>ellipse</rdf:li>
          </rdf:Bag>
        </dc:subject>
        <dc:description>Two links of a chain</dc:description>
      </cc:Work>
    </rdf:RDF>
  </metadata>
  <g
     id="g3053"
     transform="matrix(0.51744146,0.51304548,-0.50575811,0.52489717,-80.38805,-27.534406)">
    <path
       transform="matrix(-0.0048042,-0.81456823,0.75834814,-0.0261533,99.214745,-53.903012)"
       d="m 35.525422,70.644066 c 0,8.012809 -10.987994,14.508474 -24.542372,14.508474 -13.5543773,0 -24.542371,-6.495665 -24.542371,-14.508474 0,-8.012809 10.9879937,-14.508474 24.542371,-14.508474 13.554378,0 24.542372,6.495665 24.542372,14.508474 z"
       sodipodi:ry="14.508474"
       sodipodi:rx="24.542372"
       sodipodi:cy="70.644066"
       sodipodi:cx="10.98305"
       id="path3012-7-0"
       style="fill:none;stroke:#302b00;stroke-width:10.43136311;stroke-linecap:round;stroke-linejoin:miter;stroke-miterlimit:4;stroke-opacity:1;stroke-dasharray:none;stroke-dashoffset:0"
       sodipodi:type="arc" />
    <path
       transform="matrix(-0.0048042,-0.81456823,0.75834814,-0.0261533,99.310206,-24.196248)"
       d="m 35.525422,70.644066 c 0,8.012809 -10.987994,14.508474 -24.542372,14.508474 -13.5543773,0 -24.542371,-6.495665 -24.542371,-14.508474 0,-8.012809 10.9879937,-14.508474 24.542371,-14.508474 13.554378,0 24.542372,6.495665 24.542372,14.508474 z"
       sodipodi:ry="14.508474"
       sodipodi:rx="24.542372"
       sodipodi:cy="70.644066"
       sodipodi:cx="10.98305"
       id="path3012-4"
       style="fill:none;stroke:#302b00;stroke-width:10.43136311;stroke-linecap:round;stroke-linejoin:miter;stroke-miterlimit:4;stroke-opacity:1;stroke-dasharray:none;stroke-dashoffset:0"
       sodipodi:type="arc" />
    <path
       transform="matrix(-0.0048042,-0.81456823,0.75834815,-0.0261533,99.3851,-24.117889)"
       d="m 36.722392,70.644066 c 0,8.763268 -11.523896,15.867301 -25.739342,15.867301 -14.2154456,0 -25.739341,-7.104033 -25.739341,-15.867301 0,-8.763268 11.5238954,-15.867301 25.739341,-15.867301 14.215446,0 25.739342,7.104033 25.739342,15.867301 z"
       sodipodi:ry="15.867301"
       sodipodi:rx="25.739342"
       sodipodi:cy="70.644066"
       sodipodi:cx="10.98305"
       id="path3012-7-0-4-8-4"
       style="fill:none;stroke:url(#linearGradient3954);stroke-width:2.60784078;stroke-linecap:round;stroke-linejoin:miter;stroke-miterlimit:4;stroke-opacity:1;stroke-dasharray:none;stroke-dashoffset:0"
       sodipodi:type="arc" />
    <path
       transform="matrix(-0.0048042,-0.81456823,0.75834815,-0.0261533,99.374414,-24.114821)"
       d="m 34.222831,70.644066 c 0,7.437062 -10.404804,13.465993 -23.239781,13.465993 -12.834976,0 -23.23978,-6.028931 -23.23978,-13.465993 0,-7.437063 10.404804,-13.465993 23.23978,-13.465993 12.834977,0 23.239781,6.02893 23.239781,13.465993 z"
       sodipodi:ry="13.465993"
       sodipodi:rx="23.23978"
       sodipodi:cy="70.644066"
       sodipodi:cx="10.98305"
       id="path3012-7-0-4-8-2-6"
       style="fill:none;stroke:url(#linearGradient3921-2);stroke-width:2.60784078;stroke-linecap:round;stroke-linejoin:miter;stroke-miterlimit:4;stroke-opacity:1;stroke-dasharray:none;stroke-dashoffset:0"
       sodipodi:type="arc" />
    <path
       transform="matrix(-0.0048042,-0.81456823,0.75834815,-0.0261533,99.214745,-53.903012)"
       d="m 35.525422,70.644066 c 0,8.012809 -10.987994,14.508474 -24.542372,14.508474 -13.5543773,0 -24.542371,-6.495665 -24.542371,-14.508474 0,-8.012809 10.9879937,-14.508474 24.542371,-14.508474 13.554378,0 24.542372,6.495665 24.542372,14.508474 z"
       sodipodi:ry="14.508474"
       sodipodi:rx="24.542372"
       sodipodi:cy="70.644066"
       sodipodi:cx="10.98305"
       id="path3012-7-0-4"
       style="fill:none;stroke:#d3d7cf;stroke-width:5.21568155;stroke-linecap:round;stroke-linejoin:miter;stroke-miterlimit:4;stroke-opacity:1;stroke-dasharray:none;stroke-dashoffset:0"
       sodipodi:type="arc" />
    <path
       transform="matrix(-0.0048042,-0.81456823,0.75834815,-0.0261533,99.214745,-53.903012)"
       d="m -1.2031843,83.237634 c -5.727681,-1.936912 -9.8946987,-5.155703 -11.5608667,-8.93013"
       sodipodi:ry="14.508474"
       sodipodi:rx="24.542372"
       sodipodi:cy="70.644066"
       sodipodi:cx="10.98305"
       id="path3012-7-0-3"
       style="fill:none;stroke:#302b00;stroke-width:10.43136311;stroke-linecap:butt;stroke-linejoin:miter;stroke-miterlimit:4;stroke-opacity:1;stroke-dasharray:none;stroke-dashoffset:0"
       sodipodi:type="arc"
       sodipodi:start="2.0904028"
       sodipodi:end="2.8863261"
       sodipodi:open="true" />
    <path
       transform="matrix(-0.0048042,-0.81456823,0.75834815,-0.0261533,99.214745,-53.903012)"
       d="m 36.722392,70.644066 c 0,8.763268 -11.523896,15.867301 -25.739342,15.867301 -14.2154456,0 -25.739341,-7.104033 -25.739341,-15.867301 0,-8.763268 11.5238954,-15.867301 25.739341,-15.867301 14.215446,0 25.739342,7.104033 25.739342,15.867301 z"
       sodipodi:ry="15.867301"
       sodipodi:rx="25.739342"
       sodipodi:cy="70.644066"
       sodipodi:cx="10.98305"
       id="path3012-7-0-4-8"
       style="fill:none;stroke:url(#linearGradient3929);stroke-width:2.60784078;stroke-linecap:round;stroke-linejoin:miter;stroke-miterlimit:4;stroke-opacity:1;stroke-dasharray:none;stroke-dashoffset:0"
       sodipodi:type="arc" />
    <path
       transform="matrix(-0.0048042,-0.81456823,0.75834815,-0.0261533,99.204058,-53.899944)"
       d="m 34.180987,70.644066 c 0,7.259602 -10.38607,13.144672 -23.197937,13.144672 -12.8118665,0 -23.197937,-5.88507 -23.197937,-13.144672 0,-7.259602 10.3860705,-13.144673 23.197937,-13.144673 12.811867,0 23.197937,5.885071 23.197937,13.144673 z"
       sodipodi:ry="13.144672"
       sodipodi:rx="23.197937"
       sodipodi:cy="70.644066"
       sodipodi:cx="10.98305"
       id="path3012-7-0-4-8-2"
       style="fill:none;stroke:url(#linearGradient3921);stroke-width:2.60784078;stroke-linecap:round;stroke-linejoin:miter;stroke-miterlimit:4;stroke-opacity:1;stroke-dasharray:none;stroke-dashoffset:0"
       sodipodi:type="arc" />
    <path
       transform="matrix(-0.0048042,-0.81456823,0.75834815,-0.0261533,99.310196,-24.196247)"
       d="m 24.010072,58.34815 c 4.024412,1.490037 7.231187,3.638255 9.231532,6.184199"
       sodipodi:ry="14.508474"
       sodipodi:rx="24.542372"
       sodipodi:cy="70.644066"
       sodipodi:cx="10.98305"
       id="path3012-4-8"
       style="fill:none;stroke:#302b00;stroke-width:10.43136311;stroke-linecap:round;stroke-linejoin:miter;stroke-miterlimit:4;stroke-opacity:1;stroke-dasharray:none;stroke-dashoffset:0"
       sodipodi:type="arc"
       sodipodi:start="5.2719299"
       sodipodi:end="5.8483605"
       sodipodi:open="true" />
    <path
       transform="matrix(-0.0048042,-0.81456823,0.75834815,-0.0261533,99.38509,-24.117888)"
       d="m 19.427669,55.655033 c 9.417174,2.016221 16.098946,7.203362 17.150992,13.314523"
       sodipodi:ry="15.867301"
       sodipodi:rx="25.739342"
       sodipodi:cy="70.644066"
       sodipodi:cx="10.98305"
       id="path3012-7-0-4-8-4-1"
       style="fill:none;stroke:url(#linearGradient3954-8);stroke-width:2.60784078;stroke-linecap:round;stroke-linejoin:miter;stroke-miterlimit:4;stroke-opacity:1;stroke-dasharray:none;stroke-dashoffset:0"
       sodipodi:type="arc"
       sodipodi:start="5.0466616"
       sodipodi:end="6.1774563"
       sodipodi:open="true" />
    <path
       transform="matrix(-0.0048042,-0.81456823,0.75834815,-0.0261533,99.374404,-24.11482)"
       d="m 19.075511,58.020851 c 8.468366,1.822732 14.346478,6.32385 15.072207,11.541421"
       sodipodi:ry="13.465993"
       sodipodi:rx="23.23978"
       sodipodi:cy="70.644066"
       sodipodi:cx="10.98305"
       id="path3012-7-0-4-8-2-6-2"
       style="fill:none;stroke:url(#linearGradient3921-2-6);stroke-width:2.60784078;stroke-linecap:round;stroke-linejoin:miter;stroke-miterlimit:4;stroke-opacity:1;stroke-dasharray:none;stroke-dashoffset:0"
       sodipodi:type="arc"
       sodipodi:start="5.0680562"
       sodipodi:end="6.2027634"
       sodipodi:open="true" />
  </g>
  <g
     transform="matrix(1.2586496,0,0,1.2586496,5.7920225,5.180519)"
     id="g1772">
    <path
       inkscape:connector-curvature="0"
       sodipodi:nodetypes="csscccscccscczzzz"
       id="path2844"
       d="m 18.638514,3.2400846 c -8.055464,0 -14.5932308,6.7569102 -14.5932308,15.0823904 0,8.325478 6.5377668,15.082389 14.5932308,15.082389 3.443787,0 6.48366,-1.416089 8.98045,-3.480552 -0.203267,1.029934 -0.07723,2.081969 0.74837,2.823115 l 10.851379,9.745543 c 1.220736,1.095858 3.055724,0.952275 4.116038,-0.309382 1.060316,-1.261657 0.921389,-3.15815 -0.299347,-4.254006 L 32.184026,28.184037 c -0.664623,-0.596634 -1.477532,-0.773278 -2.28253,-0.657438 1.966276,-2.569944 3.330248,-5.675845 3.330248,-9.204124 0,-8.3254802 -6.537766,-15.0823904 -14.59323,-15.0823904 z m -0.07484,1.2542573 c 7.560929,0 13.155142,4.8985954 13.155142,13.5960951 0,8.873733 -5.756897,13.596096 -13.155142,13.596096 -7.227878,0 -13.1551394,-5.603515 -13.1551394,-13.596096 0,-8.1669059 5.7647634,-13.5960952 13.1551394,-13.5960951 z"
       style="color:#000000;fill:#dcdcdc;fill-opacity:1;fill-rule:evenodd;stroke:url(#linearGradient2852);stroke-width:2;stroke-linecap:round;stroke-linejoin:miter;stroke-miterlimit:10;stroke-opacity:1;stroke-dasharray:none;stroke-dashoffset:0;marker:none;visibility:visible;display:inline;overflow:visible" />
    <path
       inkscape:connector-curvature="0"
       style="color:#000000;fill:#dcdcdc;fill-opacity:1;fill-rule:evenodd;stroke:none;stroke-width:1;marker:none;visibility:visible;display:inline;overflow:visible"
       d="m 18.614104,3.1754377 c -8.081503,0 -14.6404046,6.7787521 -14.6404046,15.1311423 0,8.352391 6.5589016,15.131144 14.6404046,15.131144 3.454918,0 6.504617,-1.420667 9.009479,-3.491802 -0.203922,1.033263 -0.07749,2.088697 0.75079,2.832239 l 10.886455,9.777046 c 1.224684,1.099399 3.065602,0.955353 4.129344,-0.310383 1.063743,-1.265734 0.924368,-3.168359 -0.300315,-4.267757 L 32.203402,28.20002 c -0.666773,-0.598561 -1.482309,-0.775776 -2.289909,-0.659561 1.972633,-2.578254 3.341014,-5.694193 3.341014,-9.233879 0,-8.3523902 -6.558901,-15.1311423 -14.640403,-15.1311423 z m -0.07508,3.2590154 c 6.216541,2e-7 11.261848,5.2144239 11.261848,11.6393409 0,6.424916 -5.045307,11.63934 -11.261848,11.63934 -6.216542,0 -11.2618498,-5.214424 -11.2618498,-11.63934 2e-7,-6.424917 5.0453078,-11.6393409 11.2618498,-11.6393409 z"
       id="path4430" />
    <path
       inkscape:connector-curvature="0"
       style="color:#000000;fill:url(#linearGradient4446);fill-opacity:1;fill-rule:evenodd;stroke:none;stroke-width:1;marker:none;visibility:visible;display:inline;overflow:visible"
       d="m 39.303318,42.554183 c -0.473751,-2.325233 1.382966,-4.921581 3.547211,-4.898007 0,0 -10.649756,-9.470078 -10.649756,-9.470078 -2.914519,-0.058 -4.225613,2.324649 -3.737989,4.705238 l 10.840534,9.662847 z"
       id="path4438"
       sodipodi:nodetypes="ccccc" />
    <circle
       r="11.048544"
       cy="18.920233"
       cx="17.500893"
       style="color:#000000;fill:none;stroke:url(#linearGradient2372);stroke-width:0.79781055;stroke-linecap:round;stroke-linejoin:miter;stroke-miterlimit:10;stroke-opacity:1;stroke-dasharray:none;stroke-dashoffset:0;marker:none;visibility:visible;display:inline;overflow:visible"
       id="path4450"
       transform="matrix(1.2329344,0,0,1.2742616,-3.1877108,-6.2938985)"
       d="m 28.549437,18.920233 c 0,6.101942 -4.946602,11.048544 -11.048544,11.048544 -6.101943,0 -11.0485443,-4.946602 -11.0485443,-11.048544 0,-6.101943 4.9466013,-11.0485442 11.0485443,-11.0485442 6.101942,0 11.048544,4.9466012 11.048544,11.0485442 z"
       sodipodi:cx="17.500893"
       sodipodi:cy="18.920233"
       sodipodi:rx="11.048544"
       sodipodi:ry="11.048544" />
    <rect
       style="opacity:0.43315501;color:#000000;fill:none;stroke:#ffffff;stroke-width:1.00049281;stroke-linecap:round;stroke-linejoin:miter;stroke-miterlimit:10;stroke-opacity:1;stroke-dasharray:none;stroke-dashoffset:0;marker:none;visibility:visible;display:inline;overflow:visible"
       id="rect4495"
       width="19.128832"
       height="4.4807057"
       x="40.715664"
       y="0.0245609"
       rx="2.1456783"
       ry="1.9050397"
       transform="matrix(0.74211359,0.67027414,-0.6364657,0.77130501,0,0)" />
    <circle
       r="8.3085051"
       cy="18.478292"
       cx="17.589281"
       style="color:#000000;fill:url(#radialGradient4460);fill-opacity:1;fill-rule:evenodd;stroke:#204a87;stroke-width:0.71060872;stroke-linecap:round;stroke-linejoin:miter;stroke-miterlimit:10;stroke-opacity:1;stroke-dashoffset:0;marker:none;visibility:visible"
       id="path4452"
       transform="matrix(1.384233,0,0,1.4306317,-5.9579283,-8.4644107)"
       d="m 25.897786,18.478292 c 0,4.588661 -3.719844,8.308506 -8.308505,8.308506 -4.588661,0 -8.308505,-3.719845 -8.308505,-8.308506 0,-4.58866 3.719844,-8.308505 8.308505,-8.308505 4.588661,0 8.308505,3.719845 8.308505,8.308505 z"
       sodipodi:cx="17.589281"
       sodipodi:cy="18.478292"
       sodipodi:rx="8.3085051"
       sodipodi:ry="8.3085051" />
    <path
       inkscape:connector-curvature="0"
       style="opacity:0.83422499;color:#000000;fill:url(#radialGradient3196);fill-opacity:1;fill-rule:evenodd;stroke:none;stroke-width:1;marker:none;visibility:visible;display:inline;overflow:visible"
       d="m 18.172698,7.5906005 c -5.154058,0 -9.3276665,4.3135055 -9.3276665,9.6403265 0,1.538408 0.4159866,2.953888 1.0364074,4.244915 1.2395061,0.472182 2.5562071,0.793444 3.9537021,0.793444 6.107521,0 10.985187,-4.972946 11.362096,-11.187539 C 23.484066,8.9893823 21.030475,7.5906005 18.172698,7.5906005 z"
       id="path4462" />
  </g>
</svg>
